<svg width="800" height="800" viewBox="0 0 800 800" fill="none" xmlns="http://www.w3.org/2000/svg">
<path d="M75 450C75 536.8 108.825 618.425 170.2 679.825C231.6 741.2 313.2 775 400 775C486.825 775 568.425 741.175 629.8 679.8C691.175 618.425 725 536.8 725 450C725 422.4 702.6 400 675 400C647.4 400 625 422.4 625 450C625 510.075 601.575 566.6 559.1 609.1C516.6 651.6 460.1 675 400 675C339.925 675 283.4 651.6 240.9 609.1C198.425 566.6 175 510.1 175 450C175 389.9 198.425 333.4 240.9 290.9C283.4 248.4 339.9 225 400 225H454.3L414.65 264.65C395.125 284.175 395.125 315.825 414.65 335.35C434.175 354.875 465.825 354.875 485.35 335.35L610.35 210.35C629.875 190.825 629.875 159.175 610.35 139.65L485.35 14.65C465.825 -4.87503 434.175 -4.87503 414.65 14.65C395.125 34.175 395.125 65.825 414.65 85.35L454.3 125H400C313.175 125 231.575 158.825 170.2 220.2C108.825 281.575 75 363.2 75 450Z" fill="#111918"/>
</svg>
