<?xml version="1.0" encoding="utf-8"?><!-- Uploaded to: SVG Repo, www.svgrepo.com, Generator: SVG Repo Mixer Tools -->
<svg fill="#000000" width="800px" height="800px" viewBox="0 0 24 24" id="exchange-euro" data-name="Flat Line" xmlns="http://www.w3.org/2000/svg" class="icon flat-line">
<path id="primary" d="M5.3,7.64A8,8,0,0,1,20,12" style="fill: none; stroke: rgb(0, 0, 0); stroke-linecap: round; stroke-linejoin: round; stroke-width: 2;"></path>
<path id="primary-2" data-name="primary" d="M4,12a7.91,7.91,0,0,0,.35,2.35,8,8,0,0,0,14.35,2" style="fill: none; stroke: rgb(0, 0, 0); stroke-linecap: round; stroke-linejoin: round; stroke-width: 2;"></path>
<polyline id="primary-3" data-name="primary" points="19 11 20 12 21 11" style="fill: none; stroke: rgb(0, 0, 0); stroke-linecap: round; stroke-linejoin: round; stroke-width: 2;"></polyline>
<polyline id="primary-4" data-name="primary" points="5 13 4 12 3 13" style="fill: none; stroke: rgb(0, 0, 0); stroke-linecap: round; stroke-linejoin: round; stroke-width: 2;"></polyline>
<!-- <line id="primary-5" data-name="primary" x1="9" y1="12" x2="11" y2="12" style="fill: none; stroke: rgb(0, 0, 0); stroke-linecap: round; stroke-linejoin: round; stroke-width: 2;"></line> -->
<!-- <path id="primary-6" data-name="primary" d="M14,9.77A3,3,0,0,0,12,9h0a3,3,0,0,0-3,3H9a3,3,0,0,0,3,3h0a3,3,0,0,0,2-.77" style="fill: none; stroke: rgb(0, 0, 0); stroke-linecap: round; stroke-linejoin: round; stroke-width: 2;"></path> -->
</svg>